<svg xmlns="http://www.w3.org/2000/svg" xmlns:xlink="http://www.w3.org/1999/xlink" width="500" zoomAndPan="magnify" viewBox="0 0 375 374.999991" height="500" preserveAspectRatio="xMidYMid meet" version="1.0"><defs><clipPath id="id1"><path d="M 117.46875 112.5 L 257.71875 112.5 L 257.71875 262.5 L 117.46875 262.5 Z M 117.46875 112.5 " clip-rule="nonzero"/></clipPath></defs><g clip-path="url(#id1)"><path fill="rgb(100%, 34.118652%, 34.118652%)" d="M 187.609375 262.484375 C 187.398438 262.484375 187.1875 262.445312 186.984375 262.367188 C 165.378906 253.871094 146.058594 235.996094 133.984375 213.328125 C 123.699219 194.023438 117.84375 170.597656 117.496094 147.371094 C 117.484375 146.582031 118.015625 145.886719 118.78125 145.695312 C 136.171875 141.296875 162.050781 132.054688 186.5625 113.007812 C 187.179688 112.53125 188.042969 112.53125 188.65625 113.007812 C 213.171875 132.054688 239.046875 141.296875 256.4375 145.695312 C 257.207031 145.886719 257.738281 146.582031 257.726562 147.371094 C 257.375 170.601562 251.519531 194.023438 241.238281 213.328125 C 229.160156 235.996094 209.84375 253.871094 188.234375 262.367188 C 188.035156 262.445312 187.824219 262.484375 187.609375 262.484375 Z M 120.933594 148.65625 C 121.472656 170.917969 127.15625 193.261719 136.992188 211.726562 C 148.578125 233.472656 167 250.648438 187.609375 258.949219 C 208.222656 250.648438 226.644531 233.472656 238.226562 211.726562 C 248.0625 193.261719 253.75 170.917969 254.289062 148.65625 C 236.863281 144.117188 211.667969 134.898438 187.609375 116.503906 C 163.554688 134.898438 138.359375 144.117188 120.933594 148.65625 Z M 120.933594 148.65625 " fill-opacity="1" fill-rule="nonzero"/></g><path fill="rgb(100%, 34.118652%, 34.118652%)" d="M 171.09375 212.308594 C 167.609375 210.960938 166.492188 209.90625 166.492188 207.964844 C 166.492188 206.339844 167.792969 204.699219 170.703125 204.699219 C 172.695312 204.699219 174.222656 205.300781 175.152344 205.808594 L 175.546875 206.023438 L 176.660156 202.738281 L 176.386719 202.582031 C 175.566406 202.121094 173.753906 201.34375 170.8125 201.34375 C 165.949219 201.34375 162.550781 204.214844 162.550781 208.328125 C 162.550781 211.660156 164.675781 213.964844 169.230469 215.578125 C 172.441406 216.8125 173.578125 217.984375 173.578125 220.0625 C 173.578125 222.390625 171.769531 223.835938 168.859375 223.835938 C 167.015625 223.835938 164.980469 223.265625 163.417969 222.304688 L 163 222.046875 L 161.980469 225.421875 L 162.214844 225.578125 C 163.644531 226.527344 166.289062 227.195312 168.644531 227.195312 C 175.222656 227.195312 177.554688 223.214844 177.554688 219.808594 C 177.554688 216.296875 175.625 214.054688 171.09375 212.308594 Z M 171.09375 212.308594 " fill-opacity="1" fill-rule="nonzero"/><path fill="rgb(100%, 34.118652%, 34.118652%)" d="M 188.917969 212.308594 C 185.433594 210.960938 184.316406 209.90625 184.316406 207.964844 C 184.316406 206.339844 185.617188 204.699219 188.527344 204.699219 C 190.519531 204.699219 192.046875 205.300781 192.976562 205.808594 L 193.371094 206.023438 L 194.484375 202.738281 L 194.210938 202.582031 C 193.390625 202.121094 191.578125 201.34375 188.636719 201.34375 C 183.773438 201.34375 180.375 204.214844 180.375 208.328125 C 180.375 211.660156 182.5 213.964844 187.054688 215.578125 C 190.265625 216.8125 191.402344 217.984375 191.402344 220.0625 C 191.402344 222.390625 189.59375 223.835938 186.683594 223.835938 C 184.839844 223.835938 182.804688 223.265625 181.242188 222.304688 L 180.824219 222.046875 L 179.804688 225.421875 L 180.039062 225.578125 C 181.46875 226.527344 184.113281 227.195312 186.46875 227.195312 C 193.046875 227.195312 195.378906 223.214844 195.378906 219.808594 C 195.378906 216.296875 193.449219 214.054688 188.917969 212.308594 Z M 188.917969 212.308594 " fill-opacity="1" fill-rule="nonzero"/><path fill="rgb(100%, 34.118652%, 34.118652%)" d="M 202.828125 223.4375 L 202.828125 201.738281 L 198.925781 201.738281 L 198.925781 226.832031 L 213.238281 226.832031 L 213.238281 223.4375 Z M 202.828125 223.4375 " fill-opacity="1" fill-rule="nonzero"/><path fill="rgb(100%, 34.118652%, 34.118652%)" d="M 205.390625 189.972656 L 169.894531 189.972656 C 167.152344 189.972656 164.921875 187.742188 164.921875 185.003906 L 164.921875 163.1875 C 164.921875 160.445312 167.152344 158.21875 169.894531 158.21875 L 205.390625 158.21875 C 208.132812 158.21875 210.367188 160.445312 210.367188 163.1875 L 210.367188 185.003906 C 210.367188 187.742188 208.132812 189.972656 205.390625 189.972656 Z M 169.894531 161.625 C 169.03125 161.625 168.332031 162.324219 168.332031 163.1875 L 168.332031 185.003906 C 168.332031 185.863281 169.03125 186.566406 169.894531 186.566406 L 205.390625 186.566406 C 206.253906 186.566406 206.957031 185.863281 206.957031 185.003906 L 206.957031 163.1875 C 206.957031 162.324219 206.253906 161.625 205.390625 161.625 Z M 169.894531 161.625 " fill-opacity="1" fill-rule="nonzero"/><path fill="rgb(100%, 34.118652%, 34.118652%)" d="M 187.644531 182.984375 C 185.164062 182.984375 183.144531 180.96875 183.144531 178.488281 L 183.144531 176.09375 C 181.9375 174.890625 181.246094 173.234375 181.261719 171.515625 C 181.296875 168.0625 184.136719 165.230469 187.597656 165.207031 C 191.144531 165.207031 194.023438 168.066406 194.023438 171.578125 C 194.023438 173.308594 193.347656 174.914062 192.140625 176.101562 L 192.140625 178.488281 C 192.144531 180.96875 190.125 182.984375 187.644531 182.984375 Z M 187.609375 168.613281 C 186.011719 168.625 184.6875 169.941406 184.671875 171.546875 C 184.664062 172.488281 185.113281 173.390625 185.871094 173.957031 C 186.300781 174.28125 186.554688 174.785156 186.554688 175.320312 L 186.554688 178.488281 C 186.554688 179.089844 187.042969 179.578125 187.644531 179.578125 C 188.242188 179.578125 188.730469 179.089844 188.730469 178.488281 L 188.730469 175.324219 C 188.730469 174.785156 188.988281 174.277344 189.421875 173.957031 C 190.179688 173.394531 190.613281 172.527344 190.613281 171.578125 C 190.613281 169.941406 189.265625 168.613281 187.609375 168.613281 Z M 187.609375 168.613281 " fill-opacity="1" fill-rule="nonzero"/><path fill="rgb(100%, 34.118652%, 34.118652%)" d="M 195.941406 161.625 C 195.488281 161.625 195.054688 161.445312 194.734375 161.125 C 194.414062 160.804688 194.234375 160.371094 194.234375 159.921875 L 194.234375 155.195312 C 194.234375 154.304688 194.0625 153.441406 193.71875 152.632812 C 193.386719 151.847656 192.910156 151.144531 192.304688 150.539062 C 191.699219 149.933594 190.992188 149.457031 190.207031 149.128906 C 188.585938 148.441406 186.699219 148.441406 185.078125 149.128906 C 184.292969 149.457031 183.589844 149.933594 182.984375 150.539062 C 182.375 151.144531 181.902344 151.847656 181.570312 152.632812 C 181.226562 153.441406 181.050781 154.304688 181.050781 155.195312 L 181.050781 159.921875 C 181.050781 160.371094 180.871094 160.804688 180.550781 161.125 C 180.234375 161.445312 179.800781 161.625 179.347656 161.625 L 173.5625 161.621094 C 172.621094 161.621094 171.859375 160.855469 171.859375 159.917969 L 171.859375 155.191406 C 171.859375 153.066406 172.277344 151.003906 173.101562 149.054688 C 173.898438 147.175781 175.035156 145.492188 176.480469 144.046875 C 177.929688 142.601562 179.617188 141.464844 181.5 140.671875 C 183.449219 139.847656 185.515625 139.429688 187.644531 139.429688 C 189.773438 139.429688 191.839844 139.847656 193.789062 140.671875 C 195.671875 141.464844 197.359375 142.601562 198.804688 144.046875 C 200.253906 145.492188 201.390625 147.179688 202.183594 149.054688 C 203.007812 151.003906 203.429688 153.066406 203.429688 155.191406 L 203.429688 159.917969 C 203.429688 160.855469 202.664062 161.621094 201.722656 161.621094 Z M 187.644531 145.207031 C 188.992188 145.207031 190.304688 145.46875 191.535156 145.992188 C 192.726562 146.492188 193.796875 147.214844 194.714844 148.132812 C 195.632812 149.046875 196.355469 150.117188 196.859375 151.304688 C 197.378906 152.539062 197.644531 153.84375 197.644531 155.195312 L 197.644531 158.21875 L 200.019531 158.214844 L 200.019531 155.191406 C 200.019531 153.527344 199.691406 151.90625 199.046875 150.382812 C 198.421875 148.910156 197.53125 147.589844 196.394531 146.453125 C 195.257812 145.320312 193.933594 144.429688 192.460938 143.808594 C 190.933594 143.164062 189.3125 142.835938 187.644531 142.835938 C 185.972656 142.835938 184.355469 143.164062 182.828125 143.808594 C 181.351562 144.429688 180.03125 145.320312 178.894531 146.453125 C 177.757812 147.585938 176.867188 148.910156 176.242188 150.382812 C 175.597656 151.90625 175.269531 153.527344 175.269531 155.191406 L 175.269531 158.214844 L 177.644531 158.21875 L 177.644531 155.195312 C 177.644531 153.84375 177.90625 152.539062 178.429688 151.304688 C 178.933594 150.113281 179.65625 149.046875 180.574219 148.128906 C 181.488281 147.214844 182.558594 146.492188 183.75 145.992188 C 184.984375 145.46875 186.292969 145.207031 187.644531 145.207031 Z M 187.644531 145.207031 " fill-opacity="1" fill-rule="nonzero"/></svg>